<svg xmlns="http://www.w3.org/2000/svg" width="40" height="44" fill="none" viewBox="0 0 40 44">
    <path fill="#fff" d="M28.77 22.846V4.634L39.624 0v23.595c0 2.846-10.854 3.176-10.854-.754v.005Z" class="Vector"/>
    <path fill="#fff" d="M19.636 43.401c-3.396 0-6.335-.479-8.806-1.434-2.471-.955-3.17-2.752-4.711-4.397-.827-.878 6.884.514 12.022-.616 4.932-1.027 7.311-4.429 8.132-5.239 1.665-1.64 2.491-4.424 2.491-8.354V6.541C33.24 8.287 38.89 14.247 39.619 20.72v3.391c0 2.845-.395 5.456-1.186 7.829-.791 2.373-2.005 4.413-3.633 6.108-1.635 1.701-3.704 3.016-6.222 3.945-2.517.936-5.496 1.396-8.949 1.396l.007.012Z" class="Vector"/>
    <path fill="#fff" d="M25.846 32.741c-1.026 1.952-5.753 7.81-14.795 8.733l-1.305.034c-1.988-.908-3.668-2.079-5.03-3.522-1.608-1.7-2.795-3.725-3.56-6.078C.385 29.555 0 26.955 0 24.115v-6.612l10.855-4.824v10.686c0 1.968.221 3.643.668 5.021.441 1.381 1.053 2.5 1.829 3.368a6.471 6.471 0 0 0 2.81 1.86c1.1.375 2.307.561 3.617.561 2.667 0 4.834-.823 6.5-2.46l-.428 1.026h-.005Z" class="Vector"/>
</svg>
